<?xml version="1.0" encoding="UTF-8" standalone="no"?>
<svg
   xmlns:dc="http://purl.org/dc/elements/1.1/"
   xmlns:cc="http://creativecommons.org/ns#"
   xmlns:rdf="http://www.w3.org/1999/02/22-rdf-syntax-ns#"
   xmlns:svg="http://www.w3.org/2000/svg"
   xmlns="http://www.w3.org/2000/svg"
   xmlns:sodipodi="http://sodipodi.sourceforge.net/DTD/sodipodi-0.dtd"
   xmlns:inkscape="http://www.inkscape.org/namespaces/inkscape"
   width="24"
   height="24"
   viewBox="0 0 24 24"
   version="1.1"
   id="svg827"
   sodipodi:docname="disliked.svg"
   inkscape:version="0.92.4 (5da689c313, 2019-01-14)">
  <metadata
     id="metadata833">
    <rdf:RDF>
      <cc:Work
         rdf:about="">
        <dc:format>image/svg+xml</dc:format>
        <dc:type
           rdf:resource="http://purl.org/dc/dcmitype/StillImage" />
      </cc:Work>
    </rdf:RDF>
  </metadata>
  <defs
     id="defs831" />
  <sodipodi:namedview
     pagecolor="#ffffff"
     bordercolor="#666666"
     borderopacity="1"
     objecttolerance="10"
     gridtolerance="10"
     guidetolerance="10"
     inkscape:pageopacity="0"
     inkscape:pageshadow="2"
     inkscape:window-width="3840"
     inkscape:window-height="2019"
     id="namedview829"
     showgrid="false"
     inkscape:zoom="45.254834"
     inkscape:cx="12.109351"
     inkscape:cy="14.712661"
     inkscape:window-x="-14"
     inkscape:window-y="-14"
     inkscape:window-maximized="1"
     inkscape:current-layer="svg827" />
  <path
     style="fill:#ffaaaa;fill-opacity:1;stroke-width:0.99355119"
     d="M 17.903293,16.547299 13.353573,12.016049 17.857717,7.4459438 16.454754,6.0481109 11.9516,10.62021 7.4058425,6.0939414 6.0137785,7.493767 10.56449,12.029002 6.059355,16.60409 l 1.3920639,1.399826 4.5130621,-4.579074 4.54873,4.533243 z"
     id="path1441"
     inkscape:connector-curvature="0" />
  <path
     id="path825"
     style="fill:#f9f9f9;fill-opacity:1"
     d="m 12.010457,2.0203855 c 5.514,0 10,4.4860005 10,10.0000005 0,5.514 -4.486,10 -10,10 -5.5140014,0 -10.0000014,-4.486 -10.0000014,-10 0,-5.514 4.486,-10.0000005 10.0000014,-10.0000005 z m 0,-1.9999999 c -6.6270014,0 -12.00000144,5.3730004 -12.00000144,12.0000004 0,6.627 5.37300004,12 12.00000144,12 6.627,0 12,-5.373 12,-12 0,-6.627 -5.373,-12.0000004 -12,-12.0000004 z" />
</svg>
